<mxfile host="app.diagrams.net" modified="2023-04-09T22:54:22.644Z" agent="Mozilla/5.0 (Macintosh; Intel Mac OS X 10_15_7) AppleWebKit/537.36 (KHTML, like Gecko) Chrome/111.0.0.0 Safari/537.36" version="21.1.5" etag="-k555TlAYz0wtis0JjXv" type="github">
  <diagram name="Page-1" id="Y2WjuvX7hO9Vn0jHDt_I">
    <mxGraphModel>
      <root>
        <mxCell id="0" />
        <mxCell id="1" parent="0" />
      </root>
    </mxGraphModel>
  </diagram>
</mxfile>
